<svg xmlns="http://www.w3.org/2000/svg" viewBox="0 0 200 200" fill="#1B3A6B">
  <circle cx="100" cy="100" r="95" fill="none" stroke="#1B3A6B" stroke-width="4"/>
  <circle cx="100" cy="100" r="20" fill="#1B3A6B"/>
  <!-- 24 spokes of the Ashoka Chakra -->
  <g stroke="#1B3A6B" stroke-width="3" stroke-linecap="round">
    <line x1="100" y1="100" x2="100" y2="10"/>
    <line x1="100" y1="100" x2="137.06" y2="13.4"/>
    <line x1="100" y1="100" x2="169.13" y2="30.87"/>
    <line x1="100" y1="100" x2="186.6" y2="62.94"/>
    <line x1="100" y1="100" x2="190" y2="100"/>
    <line x1="100" y1="100" x2="186.6" y2="137.06"/>
    <line x1="100" y1="100" x2="169.13" y2="169.13"/>
    <line x1="100" y1="100" x2="137.06" y2="186.6"/>
    <line x1="100" y1="100" x2="100" y2="190"/>
    <line x1="100" y1="100" x2="62.94" y2="186.6"/>
    <line x1="100" y1="100" x2="30.87" y2="169.13"/>
    <line x1="100" y1="100" x2="13.4" y2="137.06"/>
    <line x1="100" y1="100" x2="10" y2="100"/>
    <line x1="100" y1="100" x2="13.4" y2="62.94"/>
    <line x1="100" y1="100" x2="30.87" y2="30.87"/>
    <line x1="100" y1="100" x2="62.94" y2="13.4"/>
    <line x1="100" y1="100" x2="118.66" y2="11.23"/>
    <line x1="100" y1="100" x2="154.13" y2="20.54"/>
    <line x1="100" y1="100" x2="179.46" y2="45.87"/>
    <line x1="100" y1="100" x2="188.77" y2="81.34"/>
    <line x1="100" y1="100" x2="188.77" y2="118.66"/>
    <line x1="100" y1="100" x2="179.46" y2="154.13"/>
    <line x1="100" y1="100" x2="154.13" y2="179.46"/>
    <line x1="100" y1="100" x2="118.66" y2="188.77"/>
  </g>
</svg>
